<svg width="1200" height="630" viewBox="0 0 1200 630" fill="none" xmlns="http://www.w3.org/2000/svg">
  <rect width="1200" height="630" fill="#0a0a0a"/>
  <defs>
    <linearGradient id="textGradient" x1="0%" y1="0%" x2="100%" y2="0%">
      <stop offset="0%" stop-color="#ca3500"/>
      <stop offset="100%" stop-color="#f97316"/>
    </linearGradient>
    <radialGradient id="bgGlow" cx="50%" cy="40%" r="50%">
      <stop offset="0%" stop-color="#f97316" stop-opacity="0.06"/>
      <stop offset="100%" stop-color="#0a0a0a" stop-opacity="0"/>
    </radialGradient>
  </defs>
  <rect width="1200" height="630" fill="url(#bgGlow)"/>
  <g transform="translate(510, 120) scale(0.7)">
    <path fill="#ca3500" d="M607.332,504 C607.326,531.495 607.294,558.49 607.346,585.485 C607.352,588.465 606.914,590.793 604.24,592.809 C575.25,614.66 546.324,636.595 517.486,658.646 C514.47,660.952 512.407,661.221 509.285,658.787 C494.437,647.216 479.397,635.89 464.438,624.46 C463.27,623.569 461.866,622.864 461.403,621.2 C461.738,619.165 463.596,618.413 464.984,617.333 C489.177,598.504 513.361,579.662 537.664,560.976 C540.631,558.695 541.738,556.305 541.728,552.593 C541.612,507.602 541.702,462.61 541.577,417.619 C541.566,413.511 542.902,410.949 546.22,408.521 C564.773,394.944 583.145,381.119 601.605,367.416 C603.021,366.365 604.224,364.784 607.332,364.955 C607.332,411.126 607.332,457.313 607.332,504z"/>
    <path fill="#f97316" d="M417.911,580.828 C417.87,526.066 417.848,471.782 417.743,417.497 C417.737,414.448 418.32,412.166 420.968,410.234 C440.601,395.902 460.139,381.441 479.722,367.04 C480.904,366.171 482.018,365.067 483.75,365.121 C485.773,366.494 485.143,368.669 485.145,370.547 C485.213,432.658 485.215,494.769 485.335,556.88 C485.342,560.588 484.152,563.103 481.195,565.311 C466.923,575.966 452.701,586.69 438.611,597.583 C435.556,599.944 433.282,600.204 430.427,597.491 C428.269,595.439 425.825,593.611 423.276,592.066 C419.132,589.552 417.071,586.205 417.911,580.828z"/>
  </g>
  <text x="600" y="480" font-family="system-ui, -apple-system, sans-serif" font-size="72" font-weight="800" fill="url(#textGradient)" text-anchor="middle">Ultimo</text>
  <text x="600" y="540" font-family="system-ui, -apple-system, sans-serif" font-size="28" fill="#a3a3a3" text-anchor="middle">The Rust Framework for Modern Web Development</text>
  <rect x="500" y="580" width="200" height="3" rx="1.5" fill="url(#textGradient)" opacity="0.6"/>
</svg>
