<svg version="1.1" id="Layer_1" xmlns="http://www.w3.org/2000/svg" xmlns:xlink="http://www.w3.org/1999/xlink" x="0px" y="0px"
	 width="100%" viewBox="410 360 205 310" enable-background="new 0 0 1024 1024" xml:space="preserve">
<path fill="#ca3500" opacity="1.000000" stroke="none" 
	d="
M607.332275,504.000061 
	C607.325745,531.494995 607.294312,558.489929 607.346252,585.484680 
	C607.351990,588.464844 606.914429,590.793030 604.239502,592.809204 
	C575.249878,614.659729 546.324097,636.595459 517.486328,658.645813 
	C514.470093,660.952148 512.407349,661.220764 509.285217,658.787476  
	C494.437103,647.215515 479.397339,635.889526 464.437622,624.460449 
	C463.270294,623.568604 461.866394,622.863892 461.402832,621.199707 
	C461.738007,619.164734 463.596191,618.413269 464.984375,617.332886 
	C489.177490,598.504211 513.360962,579.662415 537.663940,560.976318 
	C540.631287,558.694763 541.737915,556.304565 541.728333,552.592651 
	C541.612427,507.601562 541.702087,462.609955 541.577271,417.618927 
	C541.565918,413.511108 542.902283,410.948853 546.220398,408.520691 
	C564.773193,394.943878 583.144592,381.119385 601.604858,367.415741 
	C603.020752,366.364716 604.223633,364.783966 607.331726,364.954742 
	C607.331726,411.126068 607.331726,457.313049 607.332275,504.000061 
z"/>

<path  fill="#f97316" opacity="1.000000" stroke="none" 
	d="
M417.910645,580.828491 
	C417.870483,526.066223 417.848480,471.781677 417.742920,417.497284 
	C417.737000,414.448486 418.320068,412.166351 420.967529,410.233887 
	C440.600891,395.902435 460.139252,381.440887 479.722198,367.040222 
	C480.904022,366.171112 482.017792,365.067322 483.750183,365.120819 
	C485.773468,366.494324 485.143219,368.668732 485.145294,370.546783 
	C485.213379,432.657867 485.214691,494.769012 485.334961,556.879944 
	C485.342133,560.588074 484.151672,563.103333 481.195068,565.310608 
	C466.923157,575.965576 452.701080,586.690125 438.610535,597.583008 
	C435.555847,599.944458 433.281555,600.204285 430.427002,597.490601 
	C428.269104,595.439148 425.824707,593.611450 423.276306,592.065918 
	C419.131500,589.552246 417.070923,586.205444 417.910645,580.828491 
z"/>
</svg>